<?xml version="1.0" standalone="no"?>
<!DOCTYPE svg PUBLIC "-//W3C//DTD SVG 20010904//EN"
 "http://www.w3.org/TR/2001/REC-SVG-20010904/DTD/svg10.dtd">
<svg version="1.0" xmlns="http://www.w3.org/2000/svg"
 width="1280.000000pt" height="1118.000000pt" viewBox="0 0 1280.000000 1118.000000"
 preserveAspectRatio="xMidYMid meet">
<metadata>
Created by potrace 1.15, written by Peter Selinger 2001-2017
</metadata>
<g transform="translate(0.000000,1118.000000) scale(0.100000,-0.100000)"
fill="#000000" stroke="none">
<path d="M6323 9354 c3 -47 27 -162 58 -279 64 -245 68 -280 39 -318 -12 -16
-68 -59 -125 -97 -185 -124 -222 -192 -192 -354 21 -117 66 -203 138 -270 54
-51 125 -86 171 -86 15 0 19 -6 16 -27 -3 -27 -6 -28 -65 -33 -34 -3 -64 -8
-67 -11 -4 -3 -6 -362 -6 -797 l0 -792 -50 -25 c-27 -14 -54 -25 -59 -25 -6 0
-30 14 -55 31 -80 57 -166 49 -319 -28 l-47 -24 -38 29 c-43 34 -91 52 -138
52 -37 0 -163 -47 -234 -87 l-46 -26 -47 34 c-39 27 -59 34 -110 37 -57 4 -69
0 -151 -41 l-89 -45 -40 26 c-34 23 -51 27 -112 27 -69 0 -74 -2 -149 -51
l-78 -51 -56 33 c-101 61 -181 46 -325 -61 l-59 -43 -35 24 c-38 26 -93 44
-133 44 -36 -1 -100 -32 -184 -90 l-73 -50 -36 15 c-20 8 -60 15 -90 15 -45 0
-62 -6 -122 -45 -130 -83 -127 -82 -186 -55 -81 38 -140 34 -225 -18 -38 -23
-88 -56 -111 -73 l-42 -32 -48 23 c-37 17 -60 21 -108 18 -55 -3 -70 -10 -150
-62 -85 -57 -90 -59 -149 -57 -57 2 -65 -1 -124 -40 -34 -23 -92 -69 -128
-102 -57 -52 -72 -61 -108 -63 -60 -2 -92 -22 -177 -111 -49 -52 -86 -101
-108 -148 -44 -89 -42 -87 -66 -121 -16 -22 -20 -44 -20 -104 1 -80 21 -135
64 -174 l21 -19 0 -887 0 -886 -112 -50 c-137 -60 -327 -167 -433 -244 -342
-248 -434 -526 -265 -794 46 -73 186 -211 280 -277 631 -438 1951 -766 3590
-894 533 -41 774 -49 1490 -49 715 0 980 9 1490 50 1405 111 2551 359 3255
704 602 294 813 617 632 965 -46 88 -205 244 -342 334 -60 40 -194 114 -297
165 l-187 91 -1 988 c0 913 1 990 17 1020 24 44 23 141 -2 192 -28 59 -122
148 -177 170 -42 15 -48 22 -48 46 0 40 -17 80 -48 112 -46 48 -78 59 -200 66
l-114 6 -14 40 c-7 22 -29 54 -48 72 -48 44 -102 57 -212 49 l-91 -6 -27 40
c-35 53 -95 83 -166 82 -53 -1 -192 -26 -212 -38 -5 -3 -25 13 -45 35 -65 77
-127 94 -257 70 l-61 -11 -42 40 c-40 38 -92 62 -136 62 -11 0 -64 -9 -119
-20 l-101 -21 -31 30 c-37 36 -94 61 -138 61 -30 0 -187 -29 -235 -44 -13 -4
-25 6 -45 34 -55 80 -142 97 -305 61 l-83 -18 -22 25 c-33 36 -96 62 -151 62
-31 0 -85 -14 -158 -41 l-111 -41 -33 36 c-69 75 -151 84 -298 33 l-95 -33
-35 32 c-80 73 -163 70 -331 -12 l-69 -34 5 834 c4 597 3 837 -5 845 -6 6 -41
11 -77 11 -37 0 -69 2 -72 5 -3 3 -3 16 -1 29 4 17 14 26 35 30 92 18 188 102
238 208 65 138 66 265 2 453 -117 345 -340 803 -396 813 -18 4 -19 -1 -13 -74z
m-506 -3400 c88 -21 257 -24 300 -6 26 11 45 12 103 2 l72 -12 -5 -149 c-4
-136 -3 -152 14 -173 29 -36 79 -49 178 -44 138 7 131 -3 131 207 l0 178 63
-14 c95 -21 274 -22 314 -2 30 16 36 16 100 -3 37 -11 114 -22 170 -25 90 -5
106 -4 142 15 37 19 43 20 74 7 51 -21 162 -45 244 -52 56 -4 83 -2 117 11 41
16 47 16 74 2 50 -26 201 -66 249 -66 24 0 57 7 74 16 28 14 33 14 86 -12 144
-68 266 -93 337 -69 45 15 47 15 153 -21 74 -25 130 -38 178 -40 48 -2 102
-15 170 -39 105 -37 184 -45 243 -24 25 9 38 6 80 -15 75 -38 219 -77 277 -75
42 1 60 -5 109 -35 76 -46 158 -77 220 -84 39 -4 62 -15 119 -58 39 -29 97
-66 130 -81 44 -21 71 -44 111 -93 l52 -65 -28 -55 c-15 -30 -34 -79 -43 -107
l-16 -53 -88 0 c-158 0 -263 -33 -301 -94 -19 -31 -25 -34 -90 -40 -89 -9
-159 -30 -195 -58 -25 -19 -38 -21 -134 -19 -141 3 -239 -18 -290 -64 l-36
-33 -115 -1 c-171 -1 -251 -27 -292 -97 -20 -34 -21 -34 -92 -34 -97 0 -182
-16 -234 -46 -41 -22 -47 -23 -115 -12 -90 14 -227 -4 -292 -37 -40 -20 -55
-21 -143 -17 -116 5 -229 -15 -282 -52 -29 -20 -40 -22 -69 -14 -19 6 -85 8
-146 7 -91 -3 -116 -8 -144 -25 l-33 -21 -61 19 c-80 25 -202 34 -250 19 -33
-11 -99 -72 -109 -101 -3 -9 -14 -7 -44 8 -70 36 -155 55 -244 56 -71 1 -91
-3 -123 -22 -36 -21 -41 -21 -82 -8 -136 47 -264 44 -321 -6 l-35 -31 -52 25
c-148 72 -305 85 -382 32 l-36 -24 -37 19 c-68 34 -172 61 -239 61 -64 0 -67
-1 -109 -43 l-43 -43 -37 19 c-99 51 -243 82 -310 67 -20 -5 -50 -18 -66 -30
l-28 -20 -48 24 c-70 36 -170 66 -216 66 -23 0 -55 -9 -74 -20 l-33 -20 -29
20 c-52 37 -193 98 -255 111 -55 11 -64 10 -109 -9 l-48 -22 -41 24 c-71 41
-184 76 -243 76 -40 0 -70 8 -112 29 -79 40 -177 71 -224 71 -41 0 -86 -18
-107 -43 -10 -13 -24 -9 -104 28 -101 47 -178 68 -229 64 -26 -3 -51 8 -121
55 -93 61 -187 101 -220 92 -15 -4 -41 14 -99 69 -75 71 -197 145 -238 145 -9
0 -26 11 -39 24 l-22 23 58 29 c64 32 98 73 108 133 l6 38 78 7 c154 13 234
55 257 137 10 34 10 34 84 40 108 9 159 26 198 65 l34 34 102 0 c123 0 227 21
270 54 29 22 43 24 176 29 168 5 208 15 255 63 33 32 38 34 106 34 125 0 261
33 283 69 4 5 64 10 134 10 88 0 145 5 187 17 41 12 107 18 205 20 101 2 162
8 200 20 41 12 96 17 220 18 173 1 189 4 240 52 25 22 26 22 90 7 36 -8 115
-16 175 -17 97 -1 114 2 145 21 19 12 36 22 37 22 1 1 32 -6 70 -15z m4993
-2153 l0 -1148 -61 -6 c-71 -6 -113 -31 -209 -122 -49 -47 -74 -64 -103 -68
-52 -8 -141 -64 -225 -142 -54 -51 -77 -65 -101 -65 -48 0 -128 -35 -221 -95
-74 -48 -91 -55 -136 -55 -57 0 -170 -35 -249 -79 -47 -25 -56 -27 -66 -14
-54 64 -176 55 -331 -23 -53 -26 -80 -34 -123 -34 -62 0 -147 -26 -237 -71
l-60 -30 -44 22 c-48 23 -76 22 -169 -8 -57 -18 -156 -66 -198 -95 -27 -20
-28 -20 -70 1 -24 12 -55 21 -69 21 -37 0 -154 -38 -220 -71 -50 -25 -58 -27
-69 -13 -23 28 -67 44 -122 44 -68 0 -189 -31 -256 -65 l-52 -26 -26 31 c-14
17 -38 37 -54 45 -54 28 -162 14 -286 -37 l-73 -30 -32 24 c-27 19 -48 24
-118 26 -98 4 -183 -14 -270 -58 l-57 -29 -23 24 c-12 13 -35 29 -51 35 -42
18 -211 8 -279 -16 l-56 -19 -34 23 c-33 22 -43 23 -140 20 -74 -3 -124 -11
-168 -27 l-64 -22 -34 30 c-45 40 -67 45 -177 38 -64 -3 -114 -13 -161 -30
l-70 -26 -37 34 c-21 18 -55 38 -76 44 -44 13 -176 13 -248 2 -42 -7 -54 -6
-74 10 -47 37 -119 52 -261 53 -101 2 -143 6 -165 18 -67 35 -217 53 -312 38
-63 -10 -70 -9 -112 14 -56 29 -140 46 -237 46 l-71 0 -26 38 c-14 22 -42 47
-62 56 -60 29 -190 48 -276 42 -74 -6 -76 -6 -104 24 -49 51 -209 87 -337 74
-61 -6 -69 -4 -100 19 -42 32 -133 57 -209 57 -55 0 -57 1 -83 41 -34 51 -87
76 -198 91 -102 13 -221 67 -366 165 l-100 68 -8 115 c-5 94 3 2070 10 2077 1
1 39 -7 84 -19 64 -16 82 -24 82 -38 0 -28 27 -85 56 -119 43 -51 77 -63 195
-69 l107 -5 12 -41 c17 -59 47 -103 88 -131 34 -23 46 -25 152 -25 l116 0 34
-52 c49 -73 105 -102 183 -93 33 3 95 17 138 29 l79 23 21 -34 c29 -47 81 -84
129 -90 34 -5 137 9 174 23 7 3 26 -15 44 -40 35 -48 100 -86 148 -86 16 0 71
11 123 24 l93 24 47 -48 c68 -71 103 -78 237 -45 58 14 111 22 116 18 6 -3 8
-1 5 4 -4 6 0 14 9 17 13 5 15 2 11 -14 -3 -13 -1 -18 6 -13 6 4 8 0 4 -10 -4
-10 -2 -16 6 -14 7 1 11 -6 11 -15 -1 -10 2 -16 6 -13 7 5 46 -33 52 -50 2 -5
8 -10 13 -11 6 0 16 -2 23 -2 7 -1 11 -6 8 -10 -2 -4 32 -4 77 1 45 6 94 10
109 11 14 0 24 4 22 7 -2 3 12 11 32 17 32 10 35 9 49 -18 8 -15 11 -31 7 -36
-4 -5 -3 -6 2 -1 10 8 78 -52 71 -62 -2 -4 4 -7 13 -8 9 -1 40 -5 69 -10 35
-7 50 -7 46 0 -4 6 2 8 15 5 12 -4 20 -3 17 2 -2 4 14 16 37 26 24 10 67 34
96 52 30 17 56 32 58 32 2 0 15 -22 29 -49 13 -27 29 -52 35 -56 5 -3 10 -11
10 -16 0 -6 -4 -7 -10 -4 -18 11 -11 -1 12 -21 12 -10 18 -13 13 -5 -5 9 -3
12 6 9 8 -3 14 -10 14 -15 0 -6 4 -15 9 -20 6 -5 6 -2 1 6 -6 11 -4 13 11 6
37 -16 91 -17 128 -1 21 9 42 13 47 10 5 -3 8 -1 7 5 -2 5 24 26 57 46 l60 36
15 -23 c35 -52 74 -88 115 -104 54 -20 83 -14 153 32 29 19 57 32 61 29 5 -2
15 3 22 13 13 16 12 16 -6 3 -11 -8 5 9 35 37 30 28 57 51 60 52 8 0 35 -72
34 -87 -1 -7 3 -11 8 -10 6 1 13 -4 16 -12 3 -9 0 -11 -9 -6 -8 4 2 -9 21 -29
34 -37 88 -72 96 -63 3 2 -8 10 -25 16 -16 7 -42 27 -57 44 l-29 31 37 -31
c82 -70 131 -65 252 22 l74 53 21 -29 c23 -30 27 -44 11 -34 -18 11 -11 -1 12
-21 19 -15 20 -16 9 -1 -19 25 2 21 25 -5 12 -14 14 -18 4 -13 -8 4 -12 5 -8
0 18 -20 184 -23 172 -4 -2 4 20 22 50 42 29 19 80 60 113 90 l59 56 19 -32
c10 -18 34 -50 54 -71 20 -21 29 -35 21 -31 -13 8 -13 7 -1 -8 15 -19 26 -23
15 -5 -5 8 -2 9 12 3 38 -17 101 -17 132 -1 17 9 60 38 95 65 35 26 69 51 74
54 6 4 21 -6 34 -21 22 -25 22 -25 2 -8 -32 27 -29 15 4 -15 14 -13 23 -18 18
-10 -5 9 -3 12 6 9 8 -3 13 -10 12 -15 -1 -6 33 -9 82 -9 68 1 88 5 102 20 17
18 17 18 -12 1 l-30 -17 25 21 c14 11 30 19 37 16 6 -2 17 4 25 13 12 15 11
16 -4 3 -39 -30 -15 -1 28 34 l46 38 21 -24 22 -23 -23 19 c-23 19 -23 19 -50
-10 l-27 -29 27 23 c24 21 30 22 44 10 9 -7 24 -14 33 -14 9 0 15 -5 14 -10
-2 -12 16 -16 109 -19 37 -2 65 1 62 5 -3 5 0 10 5 10 32 4 36 6 34 15 -1 6
24 36 56 67 l58 55 37 -37 c20 -20 33 -41 29 -46 -5 -4 -3 -5 3 -2 7 4 27 1
44 -7 18 -7 27 -15 21 -17 -7 -3 7 -4 32 -4 25 0 43 3 41 6 -4 7 45 24 59 20
5 -1 6 2 3 7 -6 10 114 118 127 114 5 -1 6 1 3 6 -2 4 5 21 18 37 20 24 24 26
29 11 5 -12 3 -15 -6 -10 -6 4 -9 4 -5 0 3 -4 9 -7 12 -7 3 0 31 -13 62 -29
31 -17 70 -30 87 -30 48 0 107 34 189 110 l75 69 39 -19 c42 -22 113 -26 147
-9 12 6 45 29 72 50 66 50 162 75 203 53 35 -18 115 -18 150 0 16 8 50 33 77
55 27 22 71 47 97 55 44 13 51 12 85 -5 22 -11 58 -19 88 -19 57 0 102 24 188
98 47 41 50 42 100 36 37 -4 64 -2 91 10 43 18 147 100 216 170 34 35 52 46
75 46 72 0 170 99 222 225 10 25 19 45 21 45 1 0 2 -517 2 -1149z"/>
<path d="M8434 3968 l-19 -23 23 19 c12 11 22 21 22 23 0 8 -8 2 -26 -19z"/>
<path d="M5104 3860 c-6 -6 -44 -29 -85 -50 -41 -22 -70 -40 -66 -40 11 0 107
49 138 71 14 10 29 16 33 12 3 -3 6 -1 6 5 0 15 -13 15 -26 2z"/>
<path d="M5969 3802 l-34 -37 33 30 c28 25 34 27 42 15 5 -8 10 -10 10 -5 0 6
-4 16 -8 22 -6 9 -18 2 -43 -25z"/>
<path d="M6879 3823 c-13 -16 -12 -17 4 -4 9 7 17 15 17 17 0 8 -8 3 -21 -13z"/>
<path d="M5150 3801 c5 -11 15 -23 21 -27 6 -3 3 5 -6 20 -20 30 -30 35 -15 7z"/>
<path d="M6910 3801 c5 -11 15 -23 21 -27 6 -3 3 5 -6 20 -20 30 -30 35 -15 7z"/>
<path d="M6805 3763 c-27 -25 -36 -37 -20 -25 28 19 84 73 74 72 -2 -1 -26
-22 -54 -47z"/>
<path d="M7245 3769 c-27 -21 -72 -50 -99 -64 -28 -14 -43 -25 -34 -25 18 0
157 90 178 115 19 23 10 18 -45 -26z"/>
<path d="M5520 3779 c-17 -13 -18 -17 -5 -10 33 17 51 31 40 31 -5 0 -21 -10
-35 -21z"/>
<path d="M7833 3793 c9 -2 25 -2 35 0 9 3 1 5 -18 5 -19 0 -27 -2 -17 -5z"/>
<path d="M5560 3776 c0 -25 123 -127 136 -113 3 2 -9 10 -26 17 -17 7 -49 33
-70 58 -22 25 -40 42 -40 38z"/>
<path d="M6404 3748 c-15 -18 -16 -20 -1 -9 14 11 20 11 35 0 16 -13 16 -13 2
6 -8 11 -15 21 -16 23 0 1 -9 -8 -20 -20z"/>
<path d="M5464 3744 c-18 -14 -18 -15 4 -4 12 6 22 13 22 15 0 8 -5 6 -26 -11z"/>
<path d="M6940 3756 c0 -2 8 -10 18 -17 15 -13 16 -12 3 4 -13 16 -21 21 -21
13z"/>
<path d="M7421 3749 c13 -8 97 -13 88 -5 -2 2 -26 6 -53 9 -30 3 -43 1 -35 -4z"/>
<path d="M4848 3743 c6 -2 18 -2 25 0 6 3 1 5 -13 5 -14 0 -19 -2 -12 -5z"/>
<path d="M5852 3716 c-46 -33 -53 -43 -14 -20 19 10 38 25 44 32 15 17 8 14
-30 -12z"/>
<path d="M6365 3721 c-6 -5 -37 -26 -69 -45 -33 -20 -55 -36 -49 -36 12 0 133
77 133 85 0 7 -5 6 -15 -4z"/>
<path d="M5400 3710 c-9 -6 -10 -10 -3 -10 6 0 15 5 18 10 8 12 4 12 -15 0z"/>
<path d="M6715 3694 l-30 -26 33 22 c17 12 32 23 32 26 0 7 -4 5 -35 -22z"/>
<path d="M5273 3688 c7 -4 28 -8 47 -8 19 0 40 4 47 8 6 4 -15 7 -47 7 -32 0
-53 -3 -47 -7z"/>
<path d="M7030 3690 c8 -5 22 -9 30 -9 10 0 8 3 -5 9 -27 12 -43 12 -25 0z"/>
<path d="M5780 3670 c-9 -6 -10 -10 -3 -10 6 0 15 5 18 10 8 12 4 12 -15 0z"/>
<path d="M6538 3648 c5 -5 16 -8 23 -6 8 3 3 7 -10 11 -17 4 -21 3 -13 -5z"/>
<path d="M6640 3650 c-9 -6 -10 -10 -3 -10 6 0 15 5 18 10 8 12 4 12 -15 0z"/>
</g>
</svg>
