<?xml version="1.0" standalone="no"?>
<!DOCTYPE svg PUBLIC "-//W3C//DTD SVG 20010904//EN"
 "http://www.w3.org/TR/2001/REC-SVG-20010904/DTD/svg10.dtd">
<svg version="1.0" xmlns="http://www.w3.org/2000/svg"
 width="640.000000pt" height="1280.000000pt" viewBox="0 0 640.000000 1280.000000"
 preserveAspectRatio="xMidYMid meet">
<g transform="translate(0.000000,1280.000000) scale(0.100000,-0.100000)"
fill="#000000" stroke="none">
<path d="M3106 12792 c-3 -5 -71 -49 -151 -98 -89 -54 -145 -95 -145 -105 0
-9 11 -76 25 -150 14 -74 25 -140 25 -146 0 -10 -66 -13 -282 -15 l-283 -3 0
-360 0 -360 49 -60 c27 -33 51 -66 53 -72 4 -10 41 -13 137 -13 72 0 137 -4
145 -9 12 -8 13 -18 5 -48 -10 -43 9 -36 -209 -68 -536 -77 -906 -256 -970
-468 -63 -207 -7 -403 360 -1247 92 -212 181 -420 198 -462 l30 -78 -52 -55
c-129 -136 -121 -270 22 -401 57 -52 60 -57 43 -68 -143 -85 -254 -185 -295
-264 -15 -29 -38 -47 -100 -81 -164 -90 -300 -223 -343 -336 -87 -229 70 -459
430 -631 104 -50 316 -122 437 -149 44 -10 87 -25 95 -32 13 -12 15 -78 15
-476 0 -624 -31 -1013 -124 -1582 -51 -307 -170 -853 -193 -881 -5 -7 -59 -37
-121 -67 -133 -65 -230 -137 -281 -205 -55 -76 -67 -121 -65 -242 1 -58 2
-184 3 -280 0 -166 -1 -179 -28 -255 -59 -169 -139 -262 -392 -450 -252 -189
-345 -288 -419 -448 -75 -162 -78 -186 -82 -715 -5 -539 -10 -498 83 -638 215
-324 721 -567 1427 -684 585 -97 1117 -109 1752 -39 1064 115 1765 440 1845
854 8 42 10 188 8 480 l-4 420 -33 90 c-69 187 -171 358 -304 508 -34 38 -137
136 -229 219 -199 177 -273 261 -333 383 -69 138 -88 222 -88 395 0 80 2 177
4 215 3 59 0 78 -20 120 -53 108 -214 234 -391 305 l-79 32 -17 56 c-35 122
-125 485 -158 642 -72 339 -126 708 -157 1085 -27 315 -9 1128 24 1161 7 6 55
22 107 34 414 99 735 291 833 497 28 60 32 78 32 153 0 74 -4 93 -31 150 -53
112 -172 223 -337 314 -54 30 -75 50 -103 93 -47 73 -117 141 -211 202 -42 28
-81 52 -87 54 -6 2 19 36 57 75 78 82 97 120 97 197 0 71 -18 113 -74 173 -25
27 -46 58 -46 70 0 25 67 209 195 532 184 467 276 720 334 928 18 62 45 137
62 168 117 223 -124 438 -636 569 -92 24 -219 48 -370 69 -147 21 -150 22
-164 51 -27 55 -14 60 183 63 l176 2 0 361 0 360 -57 67 c-31 37 -61 70 -67
74 -6 4 -82 8 -168 8 -91 0 -159 4 -163 10 -3 5 4 46 16 90 20 72 21 82 7 93
-9 6 -38 39 -66 73 -42 51 -71 72 -188 139 -77 43 -151 87 -166 97 -15 10 -29
15 -32 10z"/>
</g>
</svg>
